# xmcd
#
# Track frame offsets: 
#        150
#        24201
#        48510
#        73163
#        96778
#        132022
#        151422
#        172768
#        194582
#        222251
#        248625
#        270836
#
# Disc length: 3922 seconds
#
# Revision: 0
# Processed by: cddbd v1.4PL0 Copyright (c) Steve Scherf et al.
# Submitted via: ExactAudioCopy v0.90b4
#
DISCID=9a0f500c
DTITLE=Kevin Welch and The Flood - Live Down Here On Earth
DYEAR=2003
DGENRE=Alt. Country
TTITLE0=Beneath My Wheels
TTITLE1=Millionaire
TTITLE2=Life Down Here On Earth
TTITLE3=Queen Of The Slipstream
TTITLE4=Long Cold Train
TTITLE5=Anna Lise Please
TTITLE6=Witness
TTITLE7=Paul Kelly's Blues
TTITLE8=Bound To Fall
TTITLE9=Me And Billy The Kid
TTITLE10=Eight More Miles
TTITLE11=Happy Ever After
EXTD=
EXTT0=
EXTT1=
EXTT2=
EXTT3=
EXTT4=
EXTT5=
EXTT6=
EXTT7=
EXTT8=
EXTT9=
EXTT10=
EXTT11=
PLAYORDER=
